<svg xmlns="http://www.w3.org/2000/svg" width="589" height="260" fill="none" class="svg_arrow" viewBox="0 0 589 260"><path stroke="currentColor" stroke-linecap="round" stroke-linejoin="round" stroke-width="2" d="M2 100.272C71.6519 128.464 153.433 125.421 227.333 127.827C272.755 129.306 319.894 127.803 365.333 125.827C403.854 124.152 444.664 119.446 481.889 109.161C512.386 100.734 548.477 91.3507 571.556 68.2717C582.667 57.1602 592.382 37.4798 584.667 22.0494C577.829 8.37487 558.522 2.95737 544.444 2.38277C502.782 0.682261 461.424 4.98119 420 8.7161C356.787 14.4156 293.439 31.4026 237.111 60.7161C196.9 81.6424 153.08 113.262 156.111 163.272C158.125 196.508 199.432 215.317 225.667 226.049C233.757 229.359 254.889 234.272 254.889 234.272L282 240.272" style="--length:1293.37px"/><path stroke="currentColor" stroke-linecap="round" stroke-linejoin="round" stroke-width="2" d="M265.526 212C271.788 221.303 277.808 231.017 285.082 239.556C288.484 243.55 279.224 245.266 276.637 246.889C273.212 249.038 251.359 260.084 255.526 258" style="--length:71.9139px"/></svg>